<?xml version="1.0" standalone="no"?>
<!DOCTYPE svg PUBLIC "-//W3C//DTD SVG 20010904//EN"
 "http://www.w3.org/TR/2001/REC-SVG-20010904/DTD/svg10.dtd">
<svg version="1.0" xmlns="http://www.w3.org/2000/svg"
 width="1024.000000pt" height="1024.000000pt" viewBox="0 0 1024.000000 1024.000000"
 preserveAspectRatio="xMidYMid meet">

<g transform="translate(0.000000,1024.000000) scale(0.100000,-0.100000)"
fill="#000000" stroke="none">
<path d="M2844 6713 l-791 -3 -286 -284 -287 -285 0 -1018 1 -1018 287 -292
288 -293 807 0 807 0 -2 173 -3 172 -725 3 -725 2 -192 192 -193 193 0 865 0
865 188 188 187 187 730 2 730 3 3 169 c2 129 -1 171 -10 178 -7 4 -15 7 -18
5 -3 -1 -361 -3 -796 -4z"/>
<path d="M4448 6510 l-208 -204 0 -286 1 -285 1104 -1108 1103 -1107 249 2
248 3 -1175 1179 -1175 1178 -3 131 -3 131 108 108 108 108 305 0 305 0 50
-47 c27 -26 73 -74 102 -105 l53 -58 0 -136 0 -137 -95 -96 -95 -97 0 -202 c0
-189 1 -203 20 -222 11 -11 24 -20 28 -20 5 0 117 110 250 244 l242 245 0 288
0 289 -205 208 -205 209 -452 -4 -453 -4 -207 -205z"/>
<path d="M7628 6713 l-1078 -3 0 -169 0 -169 83 -5 c45 -2 226 -2 402 -1 176
1 636 3 1023 3 l702 1 -2 173 -3 172 -25 0 c-14 0 -510 -1 -1102 -2z"/>
<path d="M4868 6184 l-78 -76 0 -96 0 -97 235 -231 235 -230 0 130 0 131 89
90 89 90 -6 111 -7 111 -75 70 -75 71 -5 -131 c-3 -88 -9 -132 -17 -134 -7 -3
-40 -22 -74 -45 -70 -45 -66 -45 -162 16 l-57 37 0 129 c0 72 -3 130 -7 130
-5 0 -43 -34 -85 -76z"/>
<path d="M2232 5957 l-92 -92 0 -747 0 -747 91 -96 91 -95 672 2 671 3 0 175
0 175 -581 5 -582 5 -3 575 -4 575 588 3 587 2 0 175 0 175 -673 0 -672 0 -93
-93z"/>
<path d="M6550 5875 l0 -175 300 0 300 0 0 -1090 0 -1090 180 0 180 0 0 1265
0 1265 -480 0 -480 0 0 -175z"/>
<path d="M7812 4788 l3 -1263 179 -3 178 -2 -2 857 c-1 472 -2 963 -1 1091 l1
232 295 0 295 0 0 175 0 175 -475 0 -475 0 2 -1262z"/>
<path d="M4102 5197 l-212 -212 0 -430 c0 -354 3 -434 14 -450 8 -11 139 -147
293 -303 l278 -282 668 0 667 0 95 93 c52 51 95 97 95 102 0 5 -55 65 -122
132 l-122 122 -54 -50 -54 -49 -506 0 -507 0 -193 193 -192 192 0 295 0 295
155 155 c85 85 155 158 155 163 0 4 -15 22 -33 40 -18 18 -73 71 -123 119
l-90 87 -212 -212z"/>
<path d="M6057 5073 c-4 -3 -7 -97 -7 -207 l0 -201 180 -180 180 -180 0 388 0
387 -173 0 c-96 0 -177 -3 -180 -7z"/>
<path d="M4960 4638 l0 -123 -85 -85 -85 -85 0 -107 0 -107 83 -82 82 -82 3
126 c2 118 4 128 25 142 69 48 127 85 134 84 5 0 40 -21 78 -47 l70 -48 3
-122 c1 -71 7 -122 12 -120 5 2 43 36 85 77 l75 74 0 75 0 75 -240 239 -240
240 0 -124z"/>
</g>
</svg>
